<svg width="25" height="25" xmlns="http://www.w3.org/2000/svg" viewBox="0 0 25 25"><defs><style>.b{fill:#349f87;stroke:#349f87;stroke-width:.3px;}.c{fill:#002a1d;}</style></defs><path class="c" d="M17.58,22.65h-1.54v-.9h1.54c.1,0,.19,0,.29-.03l.16.89c-.15.03-.3.04-.45.04ZM15.28,22.65h-1.91v-.9h1.91v.9ZM12.6,22.65h-1.91v-.9h1.91v.9ZM9.93,22.65h-1.91v-.9h1.91v.9ZM7.25,22.65h-1.91v-.9h1.91v.9ZM18.9,22.29l-.48-.77c.44-.26.73-.7.79-1.19l.91.11c-.09.76-.55,1.46-1.22,1.85ZM19.17,19.75c-.12-.48-.47-.88-.93-1.08l.37-.82c.72.31,1.26.94,1.45,1.69l-.89.22ZM7.75,18.53v-.9h1.91s0,.9,0,.9h-1.91ZM10.42,18.53v-.9h1.91s0,.9,0,.9h-1.91ZM13.1,18.53v-.9h1.91s0,.9,0,.9h-1.91ZM17.66,18.53s-.06,0-.08,0h-1.8s0-.9,0-.9h1.79s.1,0,.14,0l-.05.9ZM6.87,18.43c-.74-.21-1.37-.72-1.71-1.41l.82-.4c.23.46.64.8,1.14.94l-.25.87ZM4.9,16.16c-.01-.11-.02-.22-.02-.33,0-.65.24-1.27.67-1.76l.69.59c-.29.33-.45.74-.45,1.18,0,.07,0,.15.01.22l-.91.11ZM6.71,14.28l-.46-.78c.42-.24.89-.36,1.38-.36h.71v.9h-.71c-.32,0-.64.08-.91.24ZM11.02,14.04h-1.91v-.9h1.91v.9Z"/><path class="b" d="M12.7,16.56h0c.26,0,.49-.12.65-.32h0l3.82-4.99c.72-.93,1.11-2.09,1.11-3.26,0-3.03-2.5-5.49-5.58-5.49s-5.59,2.46-5.59,5.49c0,1.17.39,2.33,1.11,3.26l3.82,4.99c.16.2.4.32.65.32ZM9.09,10.6h0c-.58-.75-.89-1.68-.89-2.62,0-2.43,2.02-4.41,4.5-4.41s4.5,1.98,4.5,4.41c0,.94-.32,1.87-.89,2.62h0l-3.61,4.71-3.61-4.71Z"/><path class="b" d="M10.44,7.84c0,1.25,1.03,2.26,2.3,2.26s2.3-1.01,2.3-2.26-1.03-2.26-2.3-2.26-2.3,1.01-2.3,2.26ZM11.53,7.84c0-.65.54-1.19,1.21-1.19s1.21.54,1.21,1.19-.54,1.19-1.21,1.19-1.21-.54-1.21-1.19Z"/></svg>
