<svg width="25" height="25" xmlns="http://www.w3.org/2000/svg" viewBox="0 0 25 25"><defs><style>.b{stroke:#354d60;}.b,.c,.d{fill:none;stroke-linecap:round;stroke-linejoin:round;stroke-width:1.2px;}.c{stroke:#002a1d;}.d{stroke:#349f87;}</style></defs><path class="b" d="M5.71,4.71c-.83,0-1.5-.67-1.5-1.49,0-.4.32-.72.72-.72h.78c.4,0,.72.32.72.72v.77c0,.4-.32.72-.72.72Z"/><path class="c" d="M5.57,14.26c-2.14,0-3.87-1.73-3.87-3.85v-4.8c0-1.11.9-2,2.01-2h.49"/><path class="c" d="M9.78,14.26c2.14,0,3.87-1.73,3.87-3.85v-4.8c0-1.11-.9-2-2.01-2h-.49"/><path class="c" d="M9.78,14.26h-4.21l1.36,1.82c.37.49,1.11.49,1.48,0l1.36-1.82Z"/><path class="c" d="M7.68,16.45v1.87c0,2.31,1.88,4.18,4.2,4.18s4.2-1.87,4.2-4.18v-7.21c0-1.57,1.28-2.85,2.86-2.85s2.86,1.27,2.86,2.85v6.88"/><path class="d" d="M9.65,4.71c-.4,0-.72-.32-.72-.72v-.77c0-.4.32-.72.72-.72h.77c.4,0,.72.32.72.72,0,.82-.67,1.49-1.5,1.49Z"/><path class="d" d="M23.27,19.77c.16-.81-.38-1.6-1.19-1.75-.82-.16-1.61.38-1.76,1.19-.16.81.38,1.6,1.19,1.75.82.16,1.61-.38,1.76-1.19Z"/><path class="d" d="M5.71,4.71c-.83,0-1.5-.67-1.5-1.49,0-.4.32-.72.72-.72h.78c.4,0,.72.32.72.72v.77c0,.4-.32.72-.72.72Z"/></svg>
