<svg width="25" height="25" xmlns="http://www.w3.org/2000/svg" viewBox="0 0 25 25"><defs><style>.b{stroke:#002a1d;}.b,.c{fill:none;stroke-linecap:round;stroke-linejoin:round;stroke-width:1.2px;}.c{stroke:#349f87;}</style></defs><path class="c" d="M19.18,15.88h1.19"/><path class="c" d="M19.18,17.58h1.19"/><path class="b" d="M10.51,6.69c1.08.12,2.6,1.12,4.3-.14,0,0,1.06.91,1.38,1.92"/><path class="b" d="M9.16,11.86c-.04-.16-.08-.46-.11-.75l-.07-.76"/><path class="b" d="M16.19,8.47s.59-.14.57.68c0,0,.02.9-.98,1.18,0,0-.07,1.15-.17,1.53"/><path class="b" d="M7.71,19.2l-.18,3.3"/><path class="b" d="M9.93,12.89l-.41,1.74c-.05.22-.2.41-.41.52-.65.34-1.92.81-2.97,1.2-.95.35-1.62,1.21-1.74,2.21l-.47,3.94"/><path class="b" d="M14.84,12.89l.41,1.74c.05.22.2.41.41.52.23.12.53.25.87.39"/><path class="b" d="M9.05,3.82c.25-.29.56-.55.96-.77,2.7-1.52,4.4.6,4.4.6,1.61-.04,2.19,1.04,2.28,2.29.12,1.28-.49,2.54-.49,2.54"/><path class="b" d="M15.61,11.86c-.1.38-1.49,2.23-3.22,2.23"/><path class="b" d="M9.16,11.86c.1.38,1.49,2.23,3.22,2.23"/><path class="b" d="M9.21,15.44s1.08,1.24,3.17,1.24,3.17-1.24,3.17-1.24"/><path class="c" d="M21.06,20.47c0,1.04-.84,1.88-1.88,1.88s-1.88-.84-1.88-1.88c0-.59.27-1.11.69-1.46v-6.75c-.01-.42.33-.76.75-.76h.86c.42,0,.76.34.76.76v6.76c.43.35.69.87.69,1.45Z"/><path class="c" d="M19.18,14.17h1.19"/><path class="b" d="M7.74,4.61s-1.47,1.75-1.47,2.94c0,.82.66,1.49,1.47,1.49s1.47-.67,1.47-1.49c0-1.19-1.47-2.94-1.47-2.94Z"/></svg>
